<?xml version="1.0" standalone="no"?>
<!DOCTYPE svg PUBLIC "-//W3C//DTD SVG 1.1//EN" "http://www.w3.org/Graphics/SVG/1.1/DTD/svg11.dtd" >
<svg xmlns="http://www.w3.org/2000/svg" xmlns:xlink="http://www.w3.org/1999/xlink" version="1.1" viewBox="-10 0 522 512">
  <clipPath id="checkbox" clipPathUnits="objectBoundingBox"><path d="M0.5,0 Q0.77,0,0.885,0.115 T1,0.5 T0.886,0.885 T0.5,1 T0.114,0.885 T0,0.5 T0.114,0.115 T0.5,0 M0.5,0.909 Q0.733,0.909,0.821,0.821 T0.909,0.5 V0.489 Q0.909,0.409,0.895,0.332 L0.588,0.639 L0.5,0.727 L0.261,0.486 Q0.239,0.469,0.239,0.44 Q0.239,0.423,0.247,0.409 T0.27,0.386 T0.301,0.378 Q0.33,0.378,0.347,0.401 L0.5,0.551 L0.844,0.207 Q0.761,0.091,0.5,0.091 Q0.267,0.091,0.179,0.179 T0.091,0.5 T0.179,0.821 T0.5,0.909"></path></clipPath>
</svg>

