<?xml version="1.0" standalone="no"?>
<!DOCTYPE svg PUBLIC "-//W3C//DTD SVG 1.1//EN" "http://www.w3.org/Graphics/SVG/1.1/DTD/svg11.dtd" >
<svg xmlns="http://www.w3.org/2000/svg" xmlns:xlink="http://www.w3.org/1999/xlink" version="1.1" viewBox="-10 0 522 512">
  <clipPath id="checkbox" clipPathUnits="objectBoundingBox"><path d="M0.636,0 Q0.787,0,0.893,0.107 T1,0.364 V0.636 Q1,0.787,0.893,0.893 T0.636,1 H0.364 Q0.213,1,0.107,0.893 T0,0.636 V0.364 Q0,0.213,0.107,0.107 T0.364,0 H0.636 M0.886,0.636 V0.364 Q0.886,0.261,0.813,0.188 T0.636,0.114 H0.364 Q0.261,0.114,0.188,0.188 T0.114,0.364 V0.636 Q0.114,0.739,0.188,0.813 T0.364,0.886 H0.636 Q0.739,0.886,0.813,0.813 T0.886,0.636"></path></clipPath>
</svg>
