<?xml version="1.0" standalone="no"?>
<!DOCTYPE svg PUBLIC "-//W3C//DTD SVG 1.1//EN" "http://www.w3.org/Graphics/SVG/1.1/DTD/svg11.dtd" >
<svg xmlns="http://www.w3.org/2000/svg" xmlns:xlink="http://www.w3.org/1999/xlink" version="1.1" viewBox="-10 0 522 512">
  <clipPath id="radio" clipPathUnits="objectBoundingBox"><path d="M0.5,0 Q0.707,0,0.854,0.146 T1,0.5 T0.854,0.854 T0.5,1 T0.146,0.854 T0,0.5 T0.146,0.146 T0.5,0 M0.5,0.909 Q0.67,0.909,0.79,0.79 T0.909,0.5 T0.79,0.21 T0.5,0.091 T0.21,0.21 T0.091,0.5 T0.21,0.79 T0.5,0.909 M0.5,0.227 Q0.614,0.227,0.693,0.307 T0.773,0.5 T0.693,0.693 T0.5,0.773 T0.307,0.693 T0.227,0.5 T0.307,0.307 T0.5,0.227"></path></clipPath>
</svg>