<?xml version="1.0" standalone="no"?>
<!DOCTYPE svg PUBLIC "-//W3C//DTD SVG 1.1//EN" "http://www.w3.org/Graphics/SVG/1.1/DTD/svg11.dtd" >
<svg xmlns="http://www.w3.org/2000/svg" xmlns:xlink="http://www.w3.org/1999/xlink" version="1.1" viewBox="-10 0 522 512">
  <clipPath id="radio" clipPathUnits="objectBoundingBox"><path d="M0.273,0.5 Q0.273,0.406,0.339,0.339 T0.5,0.273 T0.661,0.339 T0.727,0.5 T0.661,0.661 T0.5,0.727 T0.339,0.661 T0.273,0.5 M0.5,0 Q0.707,0,0.854,0.146 T1,0.5 T0.854,0.854 T0.5,1 T0.146,0.854 T0,0.5 T0.146,0.146 T0.5,0 M0.5,0.886 Q0.659,0.886,0.773,0.773 T0.886,0.5 T0.773,0.227 T0.5,0.114 T0.227,0.227 T0.114,0.5 T0.227,0.773 T0.5,0.886"></path></clipPath>
</svg>